<svg width="114.000000" height="99.000000" viewBox="0 0 114 99" fill="none" xmlns="http://www.w3.org/2000/svg" xmlns:xlink="http://www.w3.org/1999/xlink">
	<desc>
			Created with Pixso.
	</desc>
	<defs>
		<clipPath id="clip406480_4302">
			<rect id="package" width="71.399994" height="79.200005" transform="translate(42.599854 0.000000)" fill="white" fill-opacity="0"/>
		</clipPath>
	</defs>
	<rect id="Frame 16" width="114.000000" height="99.000000" fill="#FFFFFF" fill-opacity="0"/>
	<circle id="Ellipse 5" cx="36.000000" cy="63.000000" r="36.000000" fill="#FF9900" fill-opacity="1.000000"/>
	<rect id="package" width="71.399994" height="79.200005" transform="translate(42.599854 0.000000)" fill="#FFFFFF" fill-opacity="0"/>
	<g clip-path="url(#clip406480_4302)">
		<path id="Vector (Stroke)" d="M60.67 9.29C60.83 9.01 61.19 8.91 61.47 9.07L95.7 28.9C95.98 29.06 96.08 29.42 95.92 29.7C95.76 29.98 95.4 30.08 95.12 29.92L60.89 10.09C60.61 9.93 60.51 9.57 60.67 9.29Z" fill="#000000" fill-opacity="1.000000" fill-rule="evenodd"/>
		<path id="Vector (Stroke)" d="M74.1 1.12C75.37 0.38 76.82 0 78.29 0C79.77 0 81.22 0.38 82.49 1.12C82.49 1.12 82.49 1.12 82.49 1.12L109.8 16.72C111.07 17.46 112.13 18.52 112.87 19.8C113.6 21.07 113.99 22.52 114 23.99L114 55.2C113.99 56.67 113.6 58.12 112.87 59.39C112.13 60.67 111.07 61.73 109.8 62.47L109.79 62.47L82.49 78.07C82.49 78.07 82.49 78.07 82.49 78.07C81.22 78.81 79.77 79.19 78.29 79.19C76.82 79.19 75.37 78.81 74.1 78.07C74.1 78.07 74.1 78.07 74.09 78.07L46.8 62.47L46.79 62.47C45.52 61.73 44.46 60.67 43.72 59.39C42.99 58.12 42.6 56.67 42.59 55.2L42.59 23.99C42.6 22.52 42.99 21.07 43.72 19.8C44.46 18.52 45.52 17.46 46.79 16.72L46.8 16.72L74.09 1.12C74.1 1.12 74.1 1.12 74.1 1.12ZM78.29 1.2C77.03 1.2 75.79 1.53 74.69 2.16L74.69 2.16L47.39 17.76C47.39 17.76 47.39 17.76 47.39 17.76C46.3 18.4 45.39 19.3 44.76 20.4C44.13 21.49 43.8 22.73 43.79 23.99L43.79 55.2C43.8 56.46 44.13 57.7 44.76 58.79C45.39 59.89 46.3 60.79 47.39 61.43C47.39 61.43 47.39 61.43 47.39 61.43L74.69 77.03C75.79 77.66 77.03 77.99 78.29 77.99C79.56 77.99 80.8 77.66 81.89 77.03L81.9 77.03L109.2 61.43C109.2 61.43 109.2 61.43 109.2 61.43C110.29 60.79 111.2 59.89 111.83 58.79C112.46 57.7 112.79 56.46 112.8 55.2L112.8 23.99C112.79 22.73 112.46 21.49 111.83 20.4C111.2 19.3 110.29 18.4 109.2 17.76C109.2 17.76 109.2 17.76 109.2 17.76L81.9 2.16L81.89 2.16C80.8 1.53 79.56 1.2 78.29 1.2Z" fill="#000000" fill-opacity="1.000000" fill-rule="evenodd"/>
		<path id="Vector (Stroke)" d="M43.87 20.09C44.04 19.81 44.4 19.71 44.68 19.87L77.99 38.93L111.31 19.87C111.59 19.71 111.95 19.81 112.12 20.09C112.28 20.37 112.18 20.73 111.9 20.89L78.29 40.12C78.11 40.22 77.88 40.22 77.7 40.12L44.09 20.89C43.81 20.73 43.71 20.37 43.87 20.09Z" fill="#000000" fill-opacity="1.000000" fill-rule="evenodd"/>
		<path id="Vector (Stroke)" d="M78 39C78.33 39 78.59 39.26 78.59 39.58L78.59 78.01C78.59 78.33 78.33 78.6 78 78.6C77.66 78.6 77.39 78.33 77.39 78.01L77.39 39.58C77.39 39.26 77.66 39 78 39Z" fill="#000000" fill-opacity="1.000000" fill-rule="evenodd"/>
	</g>
</svg>
