<svg width="114.000000" height="99.000000" viewBox="0 0 114 99" fill="none" xmlns="http://www.w3.org/2000/svg" xmlns:xlink="http://www.w3.org/1999/xlink">
	<desc>
			Created with Pixso.
	</desc>
	<defs/>
	<rect id="Frame 12" width="114.000000" height="99.000000" fill="#FFFFFF" fill-opacity="0"/>
	<circle id="Ellipse 6" cx="38.399902" cy="60.599953" r="38.400002" fill="#FF9900" fill-opacity="1.000000"/>
	<circle id="Ellipse 6" cx="38.399902" cy="60.599953" r="38.080647" stroke="#FF9900" stroke-opacity="1.000000" stroke-width="0.638710"/>
	<path id="Vector (Stroke)" d="M73 30.01C67.36 30.01 62.78 34.59 62.78 40.23C62.78 45.88 67.36 50.45 73 50.45C78.65 50.45 83.22 45.88 83.22 40.23C83.22 34.59 78.65 30.01 73 30.01ZM61.5 40.23C61.5 33.88 66.65 28.74 73 28.74C79.35 28.74 84.5 33.88 84.5 40.23C84.5 46.58 79.35 51.73 73 51.73C66.65 51.73 61.5 46.58 61.5 40.23Z" fill="#000000" fill-opacity="1.000000" fill-rule="evenodd"/>
	<path id="Vector (Stroke)" d="M73.32 1.28C71.57 1.28 69.88 1.97 68.64 3.21C67.4 4.45 66.7 6.14 66.7 7.89L66.7 8.51L66.7 8.51C66.7 9.81 66.32 11.07 65.6 12.15C64.89 13.22 63.87 14.07 62.69 14.58C62.61 14.61 62.52 14.63 62.43 14.63L62.28 14.63C61.1 15.12 59.8 15.26 58.54 15.03C57.24 14.8 56.04 14.18 55.09 13.25L55.09 13.25L54.87 13.03C54.25 12.41 53.52 11.92 52.72 11.59C51.92 11.26 51.06 11.09 50.19 11.09C49.32 11.09 48.46 11.26 47.65 11.59C46.85 11.92 46.12 12.41 45.51 13.03L45.5 13.03C44.89 13.64 44.4 14.37 44.07 15.18C43.74 15.98 43.56 16.84 43.56 17.71C43.56 18.58 43.74 19.44 44.07 20.24C44.4 21.05 44.89 21.78 45.5 22.39L45.73 22.61C46.65 23.56 47.27 24.76 47.51 26.07C47.75 27.36 47.59 28.7 47.06 29.91C46.6 31.15 45.78 32.22 44.7 32.99C43.62 33.76 42.33 34.19 41 34.23L40.99 34.23L40.66 34.23C38.91 34.23 37.22 34.92 35.98 36.16C34.74 37.41 34.04 39.09 34.04 40.84C34.04 42.6 34.74 44.28 35.98 45.52C37.22 46.76 38.91 47.46 40.66 47.46L41.28 47.46C42.57 47.47 43.84 47.85 44.91 48.56C45.99 49.28 46.84 50.29 47.34 51.47C47.88 52.69 48.04 54.03 47.8 55.33C47.57 56.63 46.94 57.84 46.02 58.78L46.01 58.79L45.8 59.01C45.18 59.62 44.69 60.35 44.36 61.15C44.03 61.96 43.85 62.82 43.85 63.69C43.85 64.56 44.03 65.42 44.36 66.22C44.69 67.02 45.18 67.75 45.79 68.37L45.8 68.37C46.41 68.98 47.14 69.47 47.94 69.81C48.75 70.14 49.61 70.31 50.48 70.31C51.35 70.31 52.21 70.14 53.01 69.81C53.81 69.47 54.54 68.98 55.16 68.37L55.38 68.15C56.33 67.22 57.53 66.6 58.83 66.36C60.13 66.13 61.47 66.28 62.67 66.81C63.91 67.27 64.99 68.09 65.76 69.17C66.53 70.25 66.96 71.54 66.99 72.87L66.99 72.89L66.99 73.21C66.99 74.97 67.69 76.65 68.93 77.89C70.17 79.13 71.86 79.83 73.61 79.83C75.37 79.83 77.05 79.13 78.29 77.89C79.53 76.65 80.23 74.97 80.23 73.21L80.23 72.6L80.23 72.59C80.23 71.3 80.62 70.04 81.33 68.96C82.04 67.88 83.06 67.04 84.24 66.53C85.45 66 86.8 65.84 88.1 66.07C89.4 66.31 90.6 66.93 91.55 67.86L91.56 67.86L91.77 68.08C92.39 68.69 93.12 69.18 93.92 69.52C94.72 69.85 95.59 70.02 96.46 70.02C97.32 70.02 98.19 69.85 98.99 69.52C99.79 69.18 100.52 68.69 101.14 68.08L101.14 68.08C101.75 67.46 102.24 66.73 102.57 65.93C102.91 65.13 103.08 64.27 103.08 63.4C103.08 62.53 102.91 61.67 102.57 60.86C102.24 60.06 101.75 59.33 101.14 58.72L100.91 58.49C99.99 57.55 99.37 56.34 99.13 55.04C98.89 53.74 99.05 52.39 99.59 51.18C100.1 50 100.94 48.99 102.02 48.27C103.1 47.56 104.36 47.18 105.65 47.17L105.65 47.17L105.98 47.17C107.74 47.17 109.42 46.47 110.66 45.23C111.9 43.99 112.6 42.31 112.6 40.55C112.6 38.8 111.9 37.11 110.66 35.87C109.42 34.63 107.74 33.94 105.98 33.94L105.36 33.94L105.36 33.94C104.07 33.93 102.81 33.55 101.73 32.83C100.65 32.12 99.8 31.11 99.3 29.92C99.26 29.84 99.24 29.75 99.24 29.67L99.24 29.51C98.75 28.33 98.61 27.03 98.84 25.78C99.08 24.47 99.7 23.27 100.62 22.32L100.63 22.32L100.85 22.1C101.46 21.49 101.95 20.76 102.28 19.95C102.62 19.15 102.79 18.29 102.79 17.42C102.79 16.55 102.62 15.69 102.28 14.88C101.95 14.08 101.46 13.35 100.85 12.74L100.85 12.74C100.23 12.12 99.5 11.63 98.7 11.3C97.9 10.97 97.03 10.8 96.16 10.8C95.3 10.8 94.43 10.97 93.63 11.3C92.83 11.63 92.1 12.12 91.48 12.74L91.26 12.96C90.31 13.89 89.11 14.51 87.81 14.74C86.51 14.98 85.16 14.82 83.95 14.29C82.77 13.78 81.75 12.93 81.04 11.86C80.33 10.78 79.94 9.51 79.94 8.22L79.94 8.22L79.94 7.89C79.94 6.14 79.24 4.45 78 3.21C76.76 1.97 75.08 1.28 73.32 1.28ZM67.74 2.31C69.22 0.83 71.23 0 73.32 0C75.42 0 77.42 0.83 78.91 2.31C80.39 3.79 81.22 5.8 81.22 7.89L81.22 8.22C81.22 8.22 81.22 8.22 81.22 8.22C81.22 9.26 81.53 10.28 82.11 11.15C82.68 12.02 83.5 12.7 84.46 13.11L84.47 13.11C85.44 13.54 86.53 13.67 87.58 13.48C88.63 13.29 89.6 12.79 90.36 12.05C90.36 12.05 90.36 12.04 90.36 12.04L90.58 11.83C91.31 11.1 92.18 10.51 93.14 10.12C94.1 9.72 95.13 9.52 96.16 9.52C97.2 9.52 98.23 9.72 99.19 10.12C100.15 10.51 101.02 11.1 101.75 11.83C102.49 12.56 103.07 13.44 103.47 14.39C103.86 15.35 104.07 16.38 104.07 17.42C104.07 18.46 103.86 19.48 103.47 20.44C103.07 21.4 102.49 22.27 101.75 23.01L101.54 23.22C101.54 23.22 101.54 23.22 101.54 23.22C100.79 23.99 100.29 24.95 100.1 26C99.91 27.06 100.04 28.14 100.47 29.12C100.51 29.2 100.53 29.29 100.53 29.38L100.53 29.53C100.94 30.44 101.6 31.21 102.44 31.77C103.3 32.34 104.32 32.65 105.37 32.65L105.98 32.65C108.08 32.65 110.08 33.49 111.57 34.97C113.05 36.45 113.88 38.46 113.88 40.55C113.88 42.65 113.05 44.66 111.57 46.14C110.08 47.62 108.08 48.45 105.98 48.45L105.66 48.45C105.66 48.45 105.66 48.45 105.66 48.45C104.61 48.46 103.6 48.76 102.73 49.34C101.86 49.92 101.17 50.73 100.76 51.69L100.76 51.7C100.33 52.68 100.2 53.76 100.39 54.81C100.58 55.86 101.08 56.83 101.83 57.59C101.83 57.59 101.83 57.6 101.83 57.6L102.04 57.81C102.78 58.54 103.36 59.41 103.76 60.37C104.15 61.33 104.36 62.36 104.36 63.4C104.36 64.43 104.15 65.46 103.76 66.42C103.36 67.38 102.78 68.25 102.04 68.98C101.31 69.72 100.44 70.3 99.48 70.7C98.52 71.1 97.49 71.3 96.46 71.3C95.42 71.3 94.39 71.1 93.43 70.7C92.47 70.3 91.6 69.72 90.87 68.98L90.65 68.77C90.65 68.77 90.65 68.77 90.65 68.77C89.89 68.02 88.92 67.52 87.87 67.33C86.82 67.14 85.73 67.27 84.76 67.7L84.75 67.71C83.79 68.12 82.97 68.8 82.4 69.67C81.82 70.54 81.51 71.56 81.51 72.6C81.51 72.6 81.51 72.6 81.51 72.6L81.51 73.21C81.51 75.31 80.68 77.32 79.2 78.8C77.71 80.28 75.71 81.11 73.61 81.11C71.52 81.11 69.51 80.28 68.03 78.8C66.55 77.32 65.71 75.31 65.71 73.21L65.71 72.89C65.69 71.82 65.34 70.79 64.72 69.92C64.09 69.04 63.22 68.38 62.21 68.01C62.21 68.01 62.2 68 62.19 68C62.19 68 62.18 68 62.18 67.99C61.2 67.56 60.11 67.43 59.06 67.62C58.01 67.81 57.04 68.31 56.28 69.06C56.28 69.06 56.28 69.06 56.28 69.06L56.07 69.27C55.33 70.01 54.46 70.59 53.5 70.99C52.54 71.39 51.52 71.59 50.48 71.59C49.44 71.59 48.41 71.39 47.45 70.99C46.49 70.59 45.62 70.01 44.89 69.27C44.16 68.54 43.57 67.67 43.18 66.71C42.78 65.75 42.57 64.73 42.57 63.69C42.57 62.65 42.78 61.62 43.18 60.66C43.57 59.7 44.16 58.83 44.89 58.1L45.1 57.89C45.1 57.89 45.1 57.89 45.1 57.88C45.85 57.12 46.35 56.15 46.54 55.1C46.73 54.05 46.6 52.97 46.17 51.99L46.17 51.98C45.76 51.02 45.08 50.21 44.21 49.63C43.34 49.05 42.32 48.75 41.28 48.74C41.28 48.74 41.28 48.74 41.28 48.74L40.66 48.74C38.57 48.74 36.56 47.91 35.08 46.43C33.59 44.95 32.76 42.94 32.76 40.84C32.76 38.75 33.59 36.74 35.08 35.26C36.56 33.78 38.57 32.95 40.66 32.95L40.98 32.95C42.05 32.92 43.09 32.57 43.96 31.95C44.83 31.32 45.5 30.45 45.87 29.45C45.87 29.43 45.88 29.42 45.88 29.41C46.31 28.43 46.44 27.35 46.25 26.29C46.06 25.24 45.56 24.28 44.81 23.51L44.6 23.3C43.87 22.56 43.28 21.69 42.88 20.73C42.49 19.78 42.28 18.75 42.28 17.71C42.28 16.67 42.49 15.64 42.88 14.68C43.28 13.73 43.87 12.85 44.6 12.12C45.33 11.39 46.2 10.8 47.16 10.41C48.12 10.01 49.15 9.81 50.19 9.81C51.22 9.81 52.25 10.01 53.21 10.41C54.17 10.8 55.04 11.39 55.77 12.12L55.99 12.34C56.75 13.08 57.72 13.58 58.77 13.77C59.82 13.96 60.91 13.84 61.89 13.4C61.97 13.37 62.05 13.35 62.14 13.35L62.3 13.35C63.21 12.93 63.98 12.27 64.53 11.44C65.11 10.57 65.42 9.55 65.42 8.51L65.42 7.89C65.42 5.8 66.25 3.79 67.74 2.31Z" fill="#000000" fill-opacity="1.000000" fill-rule="evenodd"/>
</svg>
